<svg data-v-0dd9719b="" version="1.0" xmlns="http://www.w3.org/2000/svg" xmlns:xlink="http://www.w3.org/1999/xlink" width="100%" height="100%" viewBox="0 0 340.000000 250.000000" preserveAspectRatio="xMidYMid meet" color-interpolation-filters="sRGB" style="margin: auto;"> <rect data-v-0dd9719b="" x="0" y="0" width="100%" height="100%" fill="#ffffff" fill-opacity="1" class="background"></rect> <rect data-v-0dd9719b="" x="0" y="0" width="100%" height="100%" fill="url(#watermark)" fill-opacity="1" class="watermarklayer"></rect> <g data-v-0dd9719b="" fill="#70c6be" class="icon-text-wrapper icon-svg-group iconsvg" transform="translate(47.88500213623047,94.96786499023438)"><g class="iconsvg-imagesvg" transform="translate(0,0)"><g><rect fill="#70c6be" fill-opacity="0" stroke-width="2" x="0" y="0" width="60" height="60.06426876758131" class="image-rect"></rect> <svg filter="url(#colors7674808802)" x="0" y="0" width="60" height="60.06426876758131" filtersec="colorsf7213535907" class="image-svg-svg primary" style="overflow: visible;"><svg xmlns="http://www.w3.org/2000/svg" viewBox="0.7999900000000002 0.7999999999999998 97.6 97.7"><path d="M49.6 96.5L2.8 49.6 49.6 2.8l46.8 46.8-46.8 46.9zm-7.8-85.9l7.8 7.8 7.8-7.8M34 18.4L49.6 34l15.6-15.6m-39 7.8l23.4 23.4L73 26.2M57.4 88.7l-7.8-7.8-7.8 7.8m31.3-15.6L49.6 49.6 26.2 73.1l7.8 7.8 15.6-15.6 15.6 15.6m23.5-39.1L73.1 57.4l7.8 7.8m0-31.2l-7.8 7.8 15.6 15.6m-70.3 7.9l7.8-7.8-15.6-15.7-7.8 7.8 7.8 7.8 15.6-15.6-7.8-7.8" fill="none" stroke="#333" stroke-width="4" stroke-miterlimit="10"></path></svg></svg> <defs><filter id="colors7674808802"><feColorMatrix type="matrix" values="0 0 0 0 0.10546875  0 0 0 0 0.625  0 0 0 0 0.84375  0 0 0 1 0" class="icon-fecolormatrix"></feColorMatrix></filter> <filter id="colorsf7213535907"><feColorMatrix type="matrix" values="0 0 0 0 0.99609375  0 0 0 0 0.99609375  0 0 0 0 0.99609375  0 0 0 1 0" class="icon-fecolormatrix"></feColorMatrix></filter> <filter id="colorsb8874521"><feColorMatrix type="matrix" values="0 0 0 0 0  0 0 0 0 0  0 0 0 0 0  0 0 0 1 0" class="icon-fecolormatrix"></feColorMatrix></filter></defs></g></g> <g transform="translate(67,0.9358844757080078)"><g data-gra="path-name" fill-rule="" class="tp-name iconsvg-namesvg" transform="translate(0,0)"><g transform="scale(1)"><g><path d="M1.67-0.44L1.32-1.71 33.79-1.71 37.53-6.42Q41.75-3.3 44.25-1.19L44.25-1.19Q44.03-0.44 42.89-0.44L42.89-0.44 1.67-0.44ZM6.94-16.79L6.59-18.06 28.52-18.06 32.08-22.5Q36.08-19.51 38.5-17.49L38.5-17.49Q38.32-16.79 37.13-16.79L37.13-16.79 6.94-16.79ZM4-31.68L3.65-32.96 31.51-32.96 35.16-37.57Q39.29-34.45 41.75-32.39L41.75-32.39Q41.57-31.68 40.43-31.68L40.43-31.68 4-31.68ZM68.91-32.92L66.05-32.92 66.05-0.22 68.91-0.22 68.91-32.92ZM75.54-0.22L79.01-0.22 82.62-5.32Q86.62-1.89 88.95 0.31L88.95 0.31Q88.73 1.05 87.63 1.05L87.63 1.05 46.89 1.05 46.54-0.22 59.41-0.22 59.41-11.87Q59.24-8.83 57.41-7.84 55.59-6.86 53.35-9.01L53.35-9.01Q53.53-15.69 50.49-25.27L50.49-25.27 51.02-25.49Q55.15-22.54 57.22-19.18 59.28-15.82 59.41-12.83L59.41-12.83 59.41-32.92 48.34-32.92 47.99-34.15 76.68-34.15 80.24-38.72Q84.24-35.68 86.66-33.62L86.66-33.62Q86.48-32.92 85.34-32.92L85.34-32.92 75.54-32.92 75.54-12.04Q78.31-20.92 79.5-26.72L79.5-26.72 87.36-23.33Q87.01-22.37 85.56-22.5L85.56-22.5Q83.98-19.56 81.19-15.58 78.4-11.6 75.54-8.48L75.54-8.48 75.54-0.22ZM103.84-26.54L103.84-20.65 109.12-20.65 109.12-26.54 103.84-26.54ZM120.89-20.65L120.89-26.54 115.44-26.54 115.44-20.65 120.89-20.65ZM123.93-14.63L126.74-17.75 132.67-13.27Q132.14-12.57 130.91-12.35L130.91-12.35 130.91-2.46Q130.91-0.83 130.63 0.2 130.34 1.23 129.53 2.15 128.72 3.08 127.09 3.58 125.46 4.09 122.87 4.31L122.87 4.31Q122.65 1.19 121.68 0L121.68 0Q120.37-1.58 117.55-2.02L117.55-2.02 117.55-2.55Q122.17-2.29 123.49-2.29L123.49-2.29Q124.37-2.29 124.37-3.16L124.37-3.16 124.37-13.36 115.44-13.36 115.44-8.48 118.08-8.61Q117.6-9.8 116.37-11.91L116.37-11.91 116.76-12.13Q122.61-10.9 123.93-7.73L123.93-7.73Q124.76-5.8 123.46-4.35 122.17-2.9 120.28-3.69L120.28-3.69Q119.75-3.91 119.22-4.35L119.22-4.35Q119.14-5.27 118.7-6.81L118.7-6.81Q112.9-4.7 104.81-2.33L104.81-2.33Q104.37-1.49 103.4-1.32L103.4-1.32 100.94-8.04Q103.84-8.04 109.12-8.17L109.12-8.17 109.12-13.36 100.42-13.36 100.42 2.29Q100.42 2.81 98.59 3.58 96.77 4.35 94.97 4.35L94.97 4.35 94 4.35 94-17.23 100.9-14.63 109.12-14.63 109.12-19.38 103.84-19.38 103.84-18.41Q103.84-17.93 102-17.2 100.15-16.48 98.35-16.48L98.35-16.48 97.47-16.48 97.47-30.37 104.24-27.82 109.12-27.82 109.12-31.9Q100.37-31.82 93.87-32.3L93.87-32.3 93.82-33.05Q101.95-33.57 111.01-35.11 120.06-36.65 125.38-38.41L125.38-38.41 130.91-33.09Q129.95-32.3 127.75-33.18L127.75-33.18Q122.08-32.39 115.44-32.08L115.44-32.08 115.44-27.82 120.45-27.82 123.31-30.89 129.2-26.5Q128.63-25.75 127.44-25.53L127.44-25.53 127.44-18.54Q127.4-18.37 126.52-18 125.64-17.62 124.34-17.31 123.05-17.01 122.04-17.01L122.04-17.01 120.89-17.01 120.89-19.38 115.44-19.38 115.44-14.63 123.93-14.63ZM152.01-23.69L154.95-26.41 155.04-26.32Q153.81-29.75 150.91-33.35L150.91-33.35Q148.01-28.26 144.67-24.74L144.67-24.74 147.57-23.69 152.01-23.69ZM159.04-9.67L159.48-9.67 159.61-3.91Q160.8-3.38 161.24-2.86 161.67-2.33 161.67-1.49L161.67-1.49Q161.67 0.4 159.5 1.19 157.32 1.98 151.7 1.98L151.7 1.98 147.26 1.98Q143.48 1.98 142.19 0.94 140.89-0.09 140.89-3.16L140.89-3.16 140.89-21.14Q138.52-19.25 135.75-17.71L135.75-17.71 135.4-18.15Q139-22.1 141.7-27.86 144.4-33.62 145.63-38.8L145.63-38.8 153.41-35.55Q153.11-34.72 151.7-34.8L151.7-34.8Q158.55-33.62 160.58-29.88L160.58-29.88Q161.81-27.55 160.53-25.62L160.53-25.62Q159.48-24.08 157.63-24.21L157.63-24.21 159.96-22.28Q159.43-21.71 158.29-21.45L158.29-21.45Q158.29-14.46 157.96-12.11 157.63-9.76 156.31-8.75L156.31-8.75Q154.64-7.47 151.17-7.47L151.17-7.47Q151.17-10.02 150.51-10.94L150.51-10.94Q149.68-12.08 147.96-12.52L147.96-12.52 147.96-13.05Q149.24-12.92 151-12.92L151-12.92Q151.7-12.92 151.96-13.23L151.96-13.23Q152.31-13.58 152.38-15.36 152.45-17.14 152.45-22.41L152.45-22.41 146.91-22.41 146.91-4.48Q146.91-3.87 147.24-3.67 147.57-3.47 148.58-3.47L148.58-3.47 152.36-3.47Q154.78-3.47 155.35-3.52L155.35-3.52Q156.31-3.6 156.71-4.09L156.71-4.09Q157.32-5.01 159.04-9.67L159.04-9.67ZM168-31.51L168-31.51 168-7.87Q168-7.65 167.28-7.27 166.55-6.9 165.41-6.59 164.27-6.28 163.26-6.28L163.26-6.28 162.16-6.28 162.16-33.31 169.41-32.61Q169.32-31.73 168-31.51ZM170.82-3.03L170.82-38.36 178.55-37.66Q178.42-36.56 176.88-36.34L176.88-36.34 176.88-2.55Q176.88-0.83 176.62 0.22 176.35 1.27 175.56 2.22 174.77 3.16 173.21 3.69 171.65 4.22 169.15 4.44L169.15 4.44Q168.88 1.23 167.96 0.13L167.96 0.13Q166.73-1.41 163.61-1.93L163.61-1.93 163.61-2.5Q168.75-2.2 169.85-2.2L169.85-2.2Q170.82-2.2 170.82-3.03L170.82-3.03Z" transform="translate(-1.3200000524520874, 38.79999923706055)"></path></g> <!----> <!----> <!----> <!----> <!----> <!----> <!----></g></g> <g data-gra="path-slogan" fill-rule="" class="tp-slogan iconsvg-slogansvg" fill="#70c6be" transform="translate(5,49.23999786376953)"><rect x="0" height="1" y="3.9750003814697266" width="25.229171752929688"></rect> <rect height="1" y="3.9750003814697266" width="25.229171752929688" x="142.00082397460938"></rect> <g transform="translate(28.229171752929688,0)"><g transform="scale(1)"><path d="M7.17-6.09L7.17-6.09L6.09-6.09Q6-7.73 3.94-7.83L3.94-7.83Q2.02-7.78 2.02-6.33L2.02-6.33Q2.02-5.39 3.05-5.25L3.05-5.25L5.48-4.69Q7.41-4.22 7.41-2.34L7.41-2.34Q7.36 0.05 4.03 0.14L4.03 0.14Q2.20 0.14 1.45-0.61L1.45-0.61Q0.52-1.31 0.56-2.77L0.56-2.77L1.69-2.77Q1.73-0.80 4.03-0.75L4.03-0.75Q6.28-0.80 6.33-2.20L6.33-2.20Q6.52-3.38 4.45-3.75L4.45-3.75L2.67-4.13Q0.84-4.64 0.84-6.19L0.84-6.19Q0.98-8.72 3.84-8.81L3.84-8.81Q7.08-8.81 7.17-6.09ZM14.53 0L13.69-2.48L10.22-2.48L9.33 0L8.16 0L11.39-8.58L12.70-8.58L15.80 0L14.53 0ZM11.95-7.31L10.59-3.52L13.27-3.52L12-7.31L11.95-7.31ZM18.23-8.58L22.55-1.64L22.55-8.58L23.67-8.58L23.67 0L22.36 0L18-6.94L17.95-6.94L17.95 0L16.83 0L16.83-8.58L18.23-8.58ZM32.39-8.58L29.16-3.47L29.16 0L27.98 0L27.98-3.47L24.75-8.58L26.11-8.58L28.55-4.45L31.03-8.58L32.39-8.58ZM39.09 0L38.25-2.48L34.78-2.48L33.89 0L32.72 0L35.95-8.58L37.27-8.58L40.36 0L39.09 0ZM36.52-7.31L35.16-3.52L37.83-3.52L36.56-7.31L36.52-7.31ZM51.66-8.58L48.42-3.47L48.42 0L47.25 0L47.25-3.47L44.02-8.58L45.38-8.58L47.81-4.45L50.30-8.58L51.66-8.58ZM58.36-3.19L58.36-8.58L59.53-8.58L59.53-3.05Q59.39 0.05 56.02 0.14L56.02 0.14Q52.88 0.05 52.73-2.86L52.73-2.86L52.73-8.58L53.91-8.58L53.91-3.19Q53.95-0.84 56.06-0.80L56.06-0.80Q58.36-0.84 58.36-3.19L58.36-3.19ZM68.48-6.05L68.48-6.05L67.36-6.05Q66.94-7.78 64.97-7.83L64.97-7.83Q62.25-7.69 62.16-4.36L62.16-4.36Q62.16-0.80 65.02-0.80L65.02-0.80Q66.98-0.84 67.45-3.19L67.45-3.19L68.58-3.19Q68.06 0.05 64.78 0.14L64.78 0.14Q61.03 0 60.94-4.31L60.94-4.31Q61.13-8.63 64.97-8.81L64.97-8.81Q68.02-8.72 68.48-6.05ZM71.11-5.06L75.61-5.06L75.61-8.58L76.78-8.58L76.78 0L75.61 0L75.61-3.98L71.11-3.98L71.11 0L69.94 0L69.94-8.58L71.11-8.58L71.11-5.06ZM84.23-3.19L84.23-8.58L85.41-8.58L85.41-3.05Q85.27 0.05 81.89 0.14L81.89 0.14Q78.75 0.05 78.61-2.86L78.61-2.86L78.61-8.58L79.78-8.58L79.78-3.19Q79.83-0.84 81.94-0.80L81.94-0.80Q84.23-0.84 84.23-3.19L84.23-3.19ZM92.86 0L92.02-2.48L88.55-2.48L87.66 0L86.48 0L89.72-8.58L91.03-8.58L94.13 0L92.86 0ZM90.28-7.31L88.92-3.52L91.59-3.52L90.33-7.31L90.28-7.31ZM96.56-8.58L100.88-1.64L100.88-8.58L102-8.58L102 0L100.69 0L96.33-6.94L96.28-6.94L96.28 0L95.16 0L95.16-8.58L96.56-8.58ZM110.20-3.61L107.58-3.61L107.58-4.59L111.33-4.59L111.33 0L110.58 0L110.30-1.08Q109.31 0.09 107.48 0.14L107.48 0.14Q105.75 0.14 104.81-0.75L104.81-0.75Q103.41-2.06 103.45-4.36L103.45-4.36Q103.78-8.63 107.53-8.81L107.53-8.81Q110.72-8.63 111.19-6L111.19-6L110.06-6Q109.59-7.78 107.48-7.83L107.48-7.83Q104.81-7.64 104.67-4.31L104.67-4.31Q104.67-0.75 107.53-0.75L107.53-0.75Q108.56-0.75 109.31-1.31L109.31-1.31Q110.25-2.06 110.20-3.61L110.20-3.61Z" transform="translate(-0.5602678571428572, 8.8125)"></path></g></g></g></g></g><defs v-gra="od"></defs></svg>